<svg version="1.1" id="Layer_1" xmlns="http://www.w3.org/2000/svg" xmlns:xlink="http://www.w3.org/1999/xlink" x="0px" y="0px"
	 width="100%" viewBox="0 0 1024 1024" enable-background="new 0 0 1024 1024" xml:space="preserve">
<path fill="#000000" opacity="1.000000" stroke="none" 
	d="
M587.643799,664.646912 
	C614.584229,634.163879 630.627747,598.966614 636.986450,559.106140 
	C635.679810,560.971985 633.886047,562.067810 632.006226,563.024658 
	C630.060730,564.014954 630.246094,566.422668 628.849548,568.262695 
	C627.854919,565.696350 630.187866,563.715759 628.685120,561.178162 
	C626.487427,568.357666 624.481750,575.147522 622.332825,581.891724 
	C607.168335,629.485046 578.768311,666.963318 536.164368,693.199768 
	C515.053833,706.200012 491.783051,713.437927 467.154999,716.404358 
	C454.071289,717.980286 440.965179,718.599365 427.803192,718.328125 
	C426.803680,718.307495 425.802460,718.342407 424.804077,718.302002 
	C422.274261,718.199646 419.190948,718.164734 418.275726,715.618713 
	C417.343658,713.025940 420.369659,711.806458 422.043854,710.354614 
	C449.400146,686.631714 470.703949,658.331726 485.163788,625.164490 
	C494.169617,604.507507 496.406342,582.872253 490.956573,560.735291 
	C484.191193,533.254211 458.694458,510.283142 430.643433,506.331909 
	C424.235077,505.429260 417.669739,505.032623 411.476318,503.319611 
	C386.689301,496.463776 373.458618,478.825470 367.862061,454.715729 
	C363.629333,436.481262 365.751831,418.657104 372.861786,401.445831 
	C379.565765,385.217285 384.255737,382.505341 401.434692,384.809265 
	C411.964600,386.221436 422.463348,387.884644 432.950714,389.591248 
	C451.597412,392.625580 466.413361,402.112854 477.980865,416.845184 
	C479.714661,419.053375 481.337769,420.982574 484.557007,420.493073 
	C485.991608,418.955170 485.725983,416.184753 487.728058,415.062195 
	C492.695862,412.276703 491.202087,409.432220 488.400024,405.962280 
	C473.279663,387.237946 453.863098,376.096802 430.120789,372.333862 
	C416.022644,370.099426 401.570923,368.873962 389.040802,361.122528 
	C369.977081,349.329254 358.740082,332.104187 354.812042,310.105743 
	C354.408875,307.847992 354.566528,305.429932 354.832672,303.128906 
	C355.127563,300.579132 356.183228,298.207397 358.746704,297.135590 
	C361.376190,296.036194 363.266602,297.793396 364.900879,299.419830 
	C373.106812,307.586365 382.220245,314.432281 392.487061,319.876892 
	C403.074707,325.491638 414.246094,329.075317 426.064850,330.513336 
	C433.658264,331.437256 441.084686,329.682007 447.980896,326.700958 
	C475.014862,315.014709 503.257202,313.026428 532.157288,315.385712 
	C547.714539,316.655792 562.766357,320.181915 577.124939,326.071167 
	C596.231934,333.907959 614.254822,330.639069 632.106567,322.331573 
	C643.576965,316.993774 653.422607,309.391663 662.549255,300.752563 
	C664.809387,298.613220 666.941772,295.766724 670.669006,297.288971 
	C674.686340,298.929749 675.693848,302.384491 675.331421,306.335602 
	C674.027283,320.552094 668.212524,332.975922 659.419434,343.938782 
	C651.219421,354.162140 641.345886,362.563354 629.534485,368.518341 
	C624.259216,371.177979 623.589233,373.038086 626.341797,378.405121 
	C631.055603,387.596222 635.860046,396.723480 638.511230,406.802795 
	C640.082886,412.777893 643.388977,418.725250 643.287781,424.640137 
	C642.757874,455.616150 635.287903,483.793732 607.811768,502.654114 
	C605.604126,504.169556 603.732849,505.767944 604.580872,508.709747 
	C605.276306,511.121979 607.642456,511.842163 609.653320,512.287964 
	C611.918335,512.790161 613.708740,510.993103 615.371826,509.675507 
	C628.238953,499.481201 637.619385,486.757416 642.515442,471.010651 
	C649.231140,449.411591 648.075989,428.013489 640.074280,406.961517 
	C638.775879,403.545837 638.930603,400.517426 641.783508,398.436829 
	C644.470398,396.477386 647.222412,398.072876 649.528259,399.873474 
	C652.093140,401.876312 653.595703,404.679565 654.883850,407.600433 
	C662.163025,424.106232 662.991760,441.325867 660.693848,458.931122 
	C658.154663,478.385254 650.779236,495.773499 638.773682,511.250061 
	C636.701782,513.920898 635.514099,516.960815 635.417603,520.408997 
	C649.595886,520.548035 654.838440,526.137024 655.281067,541.510681 
	C655.940308,564.410400 652.070801,586.648682 644.256714,608.068848 
	C630.561584,645.610413 607.436523,676.077820 574.247925,698.628418 
	C568.046753,702.841858 561.577881,706.663452 554.461731,709.197205 
	C552.155273,710.018372 549.641907,711.341858 547.719421,708.511169 
	C545.655884,705.472778 547.258972,702.974915 549.417236,701.014160 
	C554.838989,696.088623 560.441162,691.361145 565.986938,686.572632 
	C573.697266,679.914978 580.684692,672.544678 587.643799,664.646912 
M486.259979,428.426575 
	C486.829102,426.978790 489.244965,426.526306 488.356445,424.015839 
	C486.640137,423.559814 484.465332,425.239838 482.804504,423.198456 
	C483.531860,425.542511 484.231689,427.588135 486.104462,429.780060 
	C486.159607,430.108154 486.179779,430.446808 486.274902,430.762848 
	C490.164032,443.681091 492.767212,456.620056 486.909088,469.694458 
	C486.196472,471.284851 486.726837,472.781067 487.660126,473.907410 
	C494.443390,482.093506 501.316010,490.205750 508.176697,498.327545 
	C510.741333,501.363617 513.138306,501.125824 515.380798,497.906921 
	C520.794189,490.136383 526.251465,482.396240 531.629700,474.601440 
	C532.430725,473.440552 533.461853,472.069885 531.611572,470.495392 
	C528.886108,471.157471 527.513000,473.491119 525.881470,475.512451 
	C523.171631,478.869812 520.547180,482.302032 517.715820,485.553864 
	C514.232056,489.554840 511.017303,489.406891 507.954163,485.049164 
	C504.702240,480.422943 501.624451,475.683960 497.825439,471.460205 
	C495.112274,468.443695 494.934662,464.991943 496.135529,461.193024 
	C497.664459,456.356232 500.931366,452.460083 502.935150,447.896698 
	C506.277832,440.284027 504.952637,438.060852 497.407532,434.630798 
	C493.582275,432.891785 489.042297,432.353424 486.259979,428.426575 
M417.940430,454.478851 
	C424.089478,462.737274 433.262573,466.190796 442.936584,463.746643 
	C452.013092,461.453430 457.849823,455.787567 459.645142,446.524536 
	C461.454956,437.186554 456.754211,427.373810 448.383881,422.164948 
	C440.100098,417.009979 429.436890,418.117035 422.002350,424.806641 
	C415.563721,430.600098 410.381989,442.824341 417.940430,454.478851 
M602.210754,459.753357 
	C608.135986,456.103119 613.209106,451.575989 615.797241,444.964386 
	C617.092407,441.655945 617.035889,437.737976 614.236450,435.384277 
	C611.469299,433.057648 609.545593,436.475616 607.662842,437.996643 
	C594.565186,448.577850 579.618774,449.318542 565.231873,439.938995 
	C562.574402,438.206451 560.087646,435.981323 556.850952,439.038818 
	C553.428406,442.271881 553.248291,445.313629 555.933838,449.358276 
	C566.155518,464.752930 584.068420,469.102631 602.210754,459.753357 
z"/>
<path fill="#000000" opacity="1.000000" stroke="none" 
	d="
M344.769745,645.173096 
	C347.207611,624.904053 348.215698,604.949585 351.693146,585.275146 
	C355.584534,563.258423 362.910461,542.867310 381.199005,528.566833 
	C415.847473,501.473938 469.623047,523.325989 476.347046,566.887146 
	C480.902435,596.399292 473.144104,622.905457 457.257935,647.525269 
	C441.314819,672.233398 420.365051,692.065063 396.933319,709.497314 
	C382.997986,719.864502 368.299591,728.991821 352.891693,736.983337 
	C343.011414,742.107971 340.155731,740.619324 340.808075,729.539124 
	C341.637573,715.450134 343.402496,701.416260 344.767883,687.358887 
	C345.026825,684.692871 347.029907,683.383789 348.994415,682.120911 
	C361.783508,673.899353 373.812256,664.694092 384.687836,654.062988 
	C396.779541,642.243042 407.507263,629.379089 414.892822,613.960388 
	C416.238312,611.151428 415.182739,607.528625 419.286835,605.478577 
	C414.152893,603.366699 411.110565,602.149536 407.474091,607.027893 
	C393.182556,626.199829 375.249298,641.565430 355.122650,654.358276 
	C352.487946,656.032898 349.589417,659.407288 346.255676,657.486633 
	C343.107330,655.672791 345.099640,651.661865 344.691711,648.642944 
	C344.559448,647.664368 344.715332,646.646912 344.769745,645.173096 
z"/>
<path fill="#000000" opacity="1.000000" stroke="none" 
	d="
M524.247192,751.841309 
	C523.648071,757.030212 520.254456,757.274475 516.502686,757.270691 
	C476.715820,757.231079 436.928925,757.240723 397.142059,757.235474 
	C392.480988,757.234863 387.812500,757.388611 383.160828,757.177063 
	C378.061401,756.945007 376.178772,753.951294 377.717102,749.025635 
	C380.679047,739.541443 392.614685,731.051208 404.761566,730.945862 
	C437.054474,730.665771 469.352875,730.634338 501.645660,730.908386 
	C515.009460,731.021729 523.399414,739.132324 524.247192,751.841309 
z"/>
<path fill="#000000" opacity="1.000000" stroke="none" 
	d="
M548.268066,747.644653 
	C546.361084,743.534119 544.859436,739.654541 542.548950,736.152466 
	C540.337402,732.800415 541.979492,731.127869 545.380005,730.906555 
	C549.192383,730.658447 553.030334,730.781067 556.857117,730.780823 
	C575.829163,730.779785 594.802063,730.689514 613.773010,730.835266 
	C625.909363,730.928467 631.695190,738.684387 628.826660,750.362610 
	C627.818481,754.467102 625.371887,757.028320 621.258179,757.060547 
	C599.625549,757.230103 577.990784,757.289368 556.358154,757.157654 
	C550.672180,757.123047 550.743469,751.350464 548.268066,747.644653 
z"/>
<path fill="#000000" opacity="1.000000" stroke="none" 
	d="
M638.774048,463.951599 
	C639.756592,462.134613 639.254211,459.906219 641.514038,458.970947 
	C643.791931,460.696533 642.891052,463.132751 642.753479,465.240295 
	C642.650391,466.819977 642.193054,468.909729 639.981323,468.571259 
	C637.133789,468.135498 638.219421,466.020569 638.774048,463.951599 
z"/>
</svg>